<svg id="ICON" xmlns="http://www.w3.org/2000/svg" viewBox="0 0 168 128"><title>eshop</title><g id="eshop"><path d="M56.72,80a2,2,0,0,1-1.92-1.44c-2.57-8.82-15.53-53.26-18.13-62C35,10.9,31.38,9.5,31.34,9.49L17.4,3.85A2,2,0,1,1,18.9.15l13.85,5.6c.13,0,5.46,2,7.76,9.68,2.6,8.74,15.56,53.19,18.13,62a2,2,0,0,1-1.36,2.48A2.23,2.23,0,0,1,56.72,80Z" style="fill:#001b41"/><path d="M142,80H39a2,2,0,0,1,0-4H142a2,2,0,0,1,0,4Zm10-18a2,2,0,0,0-2-2H34a2,2,0,0,0,0,4H150A2,2,0,0,0,152,62Zm8-16a2,2,0,0,0-2-2H30a2,2,0,0,0,0,4H158A2,2,0,0,0,160,46Zm8-16a2,2,0,0,0-2-2H26a2,2,0,0,0,0,4H166A2,2,0,0,0,168,30Z" style="fill:#0b9dcc"/><path d="M62,128a10,10,0,1,1,10-10A10,10,0,0,1,62,128Zm0-16a6,6,0,1,0,6,6A6,6,0,0,0,62,112Zm55.48,16a10,10,0,1,1,10-10A10,10,0,0,1,117.48,128Zm0-16a6,6,0,1,0,6,6A6,6,0,0,0,117.48,112ZM128,98a2,2,0,0,0-2-2H56A14.08,14.08,0,0,1,41.93,85.87c-.15-.52-14.48-52.54-17.42-62.44-2.3-7.7-7.63-9.64-7.76-9.68L2.9,8.15a2,2,0,1,0-1.5,3.7l13.94,5.64S19,18.9,20.67,24.57c2.94,9.86,17.26,61.84,17.39,62.32A18.09,18.09,0,0,0,56,100h70A2,2,0,0,0,128,98Z" style="fill:#001b41"/></g></svg>