<svg id="ICON" xmlns="http://www.w3.org/2000/svg" viewBox="0 0 128 128"><title>list-local</title><g id="list-local"><path d="M50,84H34a2,2,0,0,0-2,2v14H28V94a2,2,0,0,0-2-2H10a2,2,0,0,0-2,2v6H2a2,2,0,0,0-2,2v24a2,2,0,0,0,2,2H50a2,2,0,0,0,2-2V86A2,2,0,0,0,50,84ZM12,96H24v4H12Zm-8,8H32v20H4Zm44,20H36V88H48ZM12,110a2,2,0,1,1-2-2A2,2,0,0,1,12,110ZM40,94a2,2,0,1,1,2,2A2,2,0,0,1,40,94Zm0,8a2,2,0,1,1,2,2A2,2,0,0,1,40,102Zm0,8a2,2,0,1,1,2,2A2,2,0,0,1,40,110Zm0,8a2,2,0,1,1,2,2A2,2,0,0,1,40,118Zm-20-8a2,2,0,1,1-2-2A2,2,0,0,1,20,110Zm8,0a2,2,0,1,1-2-2A2,2,0,0,1,28,110Zm-16,8a2,2,0,1,1-2-2A2,2,0,0,1,12,118Zm8,0a2,2,0,1,1-2-2A2,2,0,0,1,20,118Zm8,0a2,2,0,1,1-2-2A2,2,0,0,1,28,118Z" style="fill:#001b41"/><path d="M76,28A12,12,0,1,0,64,40,12,12,0,0,0,76,28ZM56,28a8,8,0,1,1,8,8A8,8,0,0,1,56,28Zm8,60a2,2,0,0,0,1.72-1C66.79,85.22,92,42.74,92,28a28,28,0,0,0-56,0c0,14.74,25.21,57.22,26.28,59A2,2,0,0,0,64,88ZM40,28a24,24,0,0,1,48,0c0,3.87-2.22,12.82-12.77,33.46C70.82,70.08,66.36,78,64,82c-2.36-4.08-6.82-12-11.23-20.57C42.22,40.82,40,31.87,40,28Zm34,72H50a2,2,0,0,0-2,2v24a2,2,0,0,0,2,2H74a2,2,0,0,0,2-2V102A2,2,0,0,0,74,100Zm-2,24H52V104H72ZM56,110a2,2,0,1,1,2,2A2,2,0,0,1,56,110Zm8,0a2,2,0,1,1,2,2A2,2,0,0,1,64,110Zm-8,8a2,2,0,1,1,2,2A2,2,0,0,1,56,118Zm8,0a2,2,0,1,1,2,2A2,2,0,0,1,64,118Z" style="fill:#0b9dcc"/><path d="M126,92H108V70a2,2,0,0,0-1-1.7,2,2,0,0,0-1.94-.09l-16,8A2,2,0,0,0,88,78V92H74a2,2,0,0,0-2,2v32a2,2,0,0,0,2,2h52a2,2,0,0,0,2-2V94A2,2,0,0,0,126,92ZM76,96H88v28H76Zm16-2V79.24l12-6V124H92Zm32,30H108V96h16ZM84,102a2,2,0,1,1-2-2A2,2,0,0,1,84,102Zm28,0a2,2,0,0,1,2-2h4a2,2,0,0,1,0,4h-4A2,2,0,0,1,112,102Zm0,8a2,2,0,0,1,2-2h4a2,2,0,0,1,0,4h-4A2,2,0,0,1,112,110Zm0,8a2,2,0,0,1,2-2h4a2,2,0,0,1,0,4h-4A2,2,0,0,1,112,118ZM100,86a2,2,0,1,1-2-2A2,2,0,0,1,100,86Zm0,8a2,2,0,1,1-2-2A2,2,0,0,1,100,94Zm0,8a2,2,0,1,1-2-2A2,2,0,0,1,100,102Zm0,8a2,2,0,1,1-2-2A2,2,0,0,1,100,110Zm0,8a2,2,0,1,1-2-2A2,2,0,0,1,100,118Zm-16-8a2,2,0,1,1-2-2A2,2,0,0,1,84,110Zm0,8a2,2,0,1,1-2-2A2,2,0,0,1,84,118Z" style="fill:#001b41"/></g></svg>