<svg id="ICON" xmlns="http://www.w3.org/2000/svg" viewBox="0 0 128 128"><title>ranking-coach-seo</title><g id="ranking-coach-seo"><path d="M49,82A33,33,0,1,1,82,49,33,33,0,0,1,49,82Zm0-62A29,29,0,1,0,78,49,29,29,0,0,0,49,20Z" style="fill:#0b9dcc"/><path d="M113.1,128a5,5,0,0,1-3.54-1.46L74.1,91.07a49,49,0,1,1,17-17l35.47,35.46a5,5,0,0,1,0,7.08l-9.9,9.9A5,5,0,0,1,113.1,128ZM74.39,86.53a2,2,0,0,1,1.41.59l36.59,36.59a1,1,0,0,0,1.42,0l9.9-9.9a1,1,0,0,0,0-1.42L87.12,75.8a2,2,0,0,1-.18-2.62A45,45,0,1,0,73.23,86.91,2,2,0,0,1,74.39,86.53Z" style="fill:#001b41"/></g></svg>