<svg id="ICON" xmlns="http://www.w3.org/2000/svg" viewBox="0 0 128 128"><title>transfer</title><g id="transfer"><path d="M74,64a2,2,0,0,1-2-2V52H38a2,2,0,0,1-2-2V30a2,2,0,0,1,2-2H72V18a2,2,0,0,1,3.24-1.57l28,22a2,2,0,0,1,0,3.14l-28,22A2,2,0,0,1,74,64ZM40,48H74a2,2,0,0,1,2,2v7.89L98.76,40,76,22.11V30a2,2,0,0,1-2,2H40Zm18,64a2,2,0,0,1-1.24-.43l-28-22a2,2,0,0,1,0-3.14l28-22A2,2,0,0,1,60,66V76H94a2,2,0,0,1,2,2V98a2,2,0,0,1-2,2H60v10a2,2,0,0,1-2,2ZM33.24,88,56,105.89V98a2,2,0,0,1,2-2H92V80H58a2,2,0,0,1-2-2V70.11Z" style="fill:#0b9dcc"/><path d="M39.76,128H8.24A8.24,8.24,0,0,1,0,119.76V8.24A8.24,8.24,0,0,1,8.24,0H39.76A8.24,8.24,0,0,1,48,8.24V10a2,2,0,0,1-4,0V8.24A4.24,4.24,0,0,0,39.76,4H8.24A4.24,4.24,0,0,0,4,8.24V119.76A4.24,4.24,0,0,0,8.24,124H39.76A4.24,4.24,0,0,0,44,119.76V118a2,2,0,0,1,4,0v1.76A8.24,8.24,0,0,1,39.76,128ZM128,119.76V8.24A8.24,8.24,0,0,0,119.76,0H88.24A8.24,8.24,0,0,0,80,8.24V10a2,2,0,0,0,4,0V8.24A4.24,4.24,0,0,1,88.24,4h31.52A4.24,4.24,0,0,1,124,8.24V119.76a4.24,4.24,0,0,1-4.24,4.24H88.24A4.24,4.24,0,0,1,84,119.76V118a2,2,0,0,0-4,0v1.76A8.24,8.24,0,0,0,88.24,128h31.52A8.24,8.24,0,0,0,128,119.76Z" style="fill:#001b41"/></g></svg>